<svg xmlns="http://www.w3.org/2000/svg" viewBox="0 0 512 512" width="512" height="512">
  <defs>
    <linearGradient id="bg" x1="0%" y1="0%" x2="100%" y2="100%">
      <stop offset="0%" stop-color="#1f2437"/>
      <stop offset="100%" stop-color="#0f121c"/>
    </linearGradient>
    <linearGradient id="gold" x1="0%" y1="0%" x2="0%" y2="100%">
      <stop offset="0%" stop-color="#f3e5ab"/>
      <stop offset="50%" stop-color="#d4af37"/>
      <stop offset="100%" stop-color="#aa820a"/>
    </linearGradient>
    <filter id="glow" x="-20%" y="-20%" width="140%" height="140%">
      <feGaussianBlur stdDeviation="12" result="blur" />
      <feComposite in="SourceGraphic" in2="blur" operator="over"/>
    </filter>
  </defs>
  <rect width="512" height="512" rx="112" fill="url(#bg)" stroke="#2c3348" stroke-width="8"/>
  <g filter="url(#glow)">
    <path d="M 128 384 L 384 384 A 8 8 0 0 0 392 376 L 392 344 A 8 8 0 0 0 384 336 L 128 336 A 8 8 0 0 0 120 344 L 120 376 A 8 8 0 0 0 128 384 Z" fill="url(#gold)"/>
    <path d="M 136 320 L 376 320 L 360 220 L 310 270 L 256 160 L 202 270 L 152 220 Z" fill="url(#gold)"/>
    <circle cx="256" cy="130" r="18" fill="#ef4444"/>
    <circle cx="145" cy="200" r="12" fill="#ef4444"/>
    <circle cx="367" cy="200" r="12" fill="#ef4444"/>
  </g>
</svg>